<mxfile host="app.diagrams.net" modified="2023-10-10T10:42:31.256Z" agent="Mozilla/5.0 (X11; Ubuntu; Linux x86_64; rv:109.0) Gecko/20100101 Firefox/118.0" etag="tB_CaQo4VxFftbSNuKcx" version="22.0.4" type="device">
  <diagram id="C5RBs43oDa-KdzZeNtuy" name="Page-1">
    <mxGraphModel dx="2074" dy="1146" grid="1" gridSize="10" guides="1" tooltips="1" connect="1" arrows="1" fold="1" page="1" pageScale="1" pageWidth="1169" pageHeight="827" math="0" shadow="0">
      <root>
        <mxCell id="WIyWlLk6GJQsqaUBKTNV-0" />
        <mxCell id="WIyWlLk6GJQsqaUBKTNV-1" parent="WIyWlLk6GJQsqaUBKTNV-0" />
        <mxCell id="6ulNubki2C7oqee6jZ3r-2" value="&lt;h1&gt;&lt;font style=&quot;font-size: 36px;&quot;&gt;Database&lt;/font&gt;&lt;/h1&gt;&lt;p style=&quot;font-size: 13px;&quot;&gt;&lt;font style=&quot;font-size: 18px;&quot;&gt;Overview about how we made it&lt;/font&gt;&lt;br&gt;&lt;/p&gt;" style="text;html=1;strokeColor=none;fillColor=none;spacing=5;spacingTop=-20;whiteSpace=wrap;overflow=hidden;rounded=0;" vertex="1" parent="WIyWlLk6GJQsqaUBKTNV-1">
          <mxGeometry x="40" y="40" width="280" height="120" as="geometry" />
        </mxCell>
        <mxCell id="6ulNubki2C7oqee6jZ3r-12" value="&lt;h1&gt;&lt;font color=&quot;#999999&quot; style=&quot;font-size: 24px;&quot;&gt;Centered arround user&lt;br&gt;&lt;/font&gt;&lt;/h1&gt;&lt;p style=&quot;font-size: 16px; line-height: 110%;&quot;&gt;&lt;font style=&quot;font-size: 16px;&quot;&gt;The user is the main &lt;b&gt;entity&lt;/b&gt; wich is the starting point from most of the &lt;b&gt;relations&lt;/b&gt;, one to one, one to many, many to many &lt;br&gt;&lt;/font&gt;&lt;/p&gt;" style="text;html=1;strokeColor=none;fillColor=none;spacing=5;spacingTop=-20;whiteSpace=wrap;overflow=hidden;rounded=0;" vertex="1" parent="WIyWlLk6GJQsqaUBKTNV-1">
          <mxGeometry x="80" y="470" width="280" height="120" as="geometry" />
        </mxCell>
        <mxCell id="6ulNubki2C7oqee6jZ3r-25" value="" style="group" vertex="1" connectable="0" parent="WIyWlLk6GJQsqaUBKTNV-1">
          <mxGeometry x="70" y="240" width="280" height="196" as="geometry" />
        </mxCell>
        <mxCell id="6ulNubki2C7oqee6jZ3r-3" value="&lt;font size=&quot;1&quot;&gt;&lt;b style=&quot;font-size: 18px;&quot;&gt;USER&lt;/b&gt;&lt;/font&gt;" style="swimlane;fontStyle=0;childLayout=stackLayout;horizontal=1;startSize=26;fillColor=#1ba1e2;horizontalStack=0;resizeParent=1;resizeParentMax=0;resizeLast=0;collapsible=1;marginBottom=0;whiteSpace=wrap;html=1;strokeColor=#006EAF;fontColor=#ffffff;strokeWidth=3;" vertex="1" parent="6ulNubki2C7oqee6jZ3r-25">
          <mxGeometry x="70" y="66" width="140" height="80" as="geometry" />
        </mxCell>
        <mxCell id="6ulNubki2C7oqee6jZ3r-4" value="&lt;div&gt;&amp;gt;&lt;/div&gt;&lt;div&gt;&lt;br&gt;&lt;/div&gt;&amp;gt;" style="text;strokeColor=none;fillColor=none;align=left;verticalAlign=top;spacingLeft=4;spacingRight=4;overflow=hidden;rotatable=0;points=[[0,0.5],[1,0.5]];portConstraint=eastwest;whiteSpace=wrap;html=1;" vertex="1" parent="6ulNubki2C7oqee6jZ3r-3">
          <mxGeometry y="26" width="140" height="54" as="geometry" />
        </mxCell>
        <mxCell id="6ulNubki2C7oqee6jZ3r-8" value="" style="edgeStyle=entityRelationEdgeStyle;fontSize=12;html=1;endArrow=ERoneToMany;startArrow=ERmandOne;rounded=0;" edge="1" parent="6ulNubki2C7oqee6jZ3r-25">
          <mxGeometry width="100" height="100" relative="1" as="geometry">
            <mxPoint x="220" y="90" as="sourcePoint" />
            <mxPoint x="320" y="-10" as="targetPoint" />
            <Array as="points">
              <mxPoint x="260" y="16" />
              <mxPoint x="250" y="36" />
            </Array>
          </mxGeometry>
        </mxCell>
        <mxCell id="6ulNubki2C7oqee6jZ3r-9" value="" style="edgeStyle=entityRelationEdgeStyle;fontSize=12;html=1;endArrow=ERmany;startArrow=ERmany;rounded=0;" edge="1" parent="6ulNubki2C7oqee6jZ3r-25">
          <mxGeometry width="100" height="100" relative="1" as="geometry">
            <mxPoint x="40" as="sourcePoint" />
            <mxPoint x="60" y="80" as="targetPoint" />
          </mxGeometry>
        </mxCell>
        <mxCell id="6ulNubki2C7oqee6jZ3r-10" value="" style="edgeStyle=entityRelationEdgeStyle;fontSize=12;html=1;endArrow=ERmandOne;startArrow=ERmandOne;rounded=0;" edge="1" parent="6ulNubki2C7oqee6jZ3r-25">
          <mxGeometry width="100" height="100" relative="1" as="geometry">
            <mxPoint y="186" as="sourcePoint" />
            <mxPoint x="60" y="116" as="targetPoint" />
          </mxGeometry>
        </mxCell>
        <mxCell id="6ulNubki2C7oqee6jZ3r-11" value="" style="edgeStyle=elbowEdgeStyle;fontSize=12;html=1;endArrow=ERmandOne;rounded=0;elbow=vertical;" edge="1" parent="6ulNubki2C7oqee6jZ3r-25">
          <mxGeometry width="100" height="100" relative="1" as="geometry">
            <mxPoint x="170" y="156" as="sourcePoint" />
            <mxPoint x="280" y="196" as="targetPoint" />
          </mxGeometry>
        </mxCell>
        <mxCell id="6ulNubki2C7oqee6jZ3r-32" value="&lt;h1&gt;&lt;font color=&quot;#999999&quot; style=&quot;font-size: 24px;&quot;&gt;Junction tables&lt;br&gt;&lt;/font&gt;&lt;/h1&gt;&lt;p style=&quot;font-size: 16px; line-height: 110%;&quot;&gt;&lt;font style=&quot;font-size: 16px;&quot;&gt;TypeORM create automatically some junction tables used to build relation between tables. &lt;br&gt;But, for many to many relations, we had to create our custom relation tables.&lt;br&gt;&lt;/font&gt;&lt;/p&gt;" style="text;html=1;strokeColor=none;fillColor=none;spacing=5;spacingTop=-20;whiteSpace=wrap;overflow=hidden;rounded=0;" vertex="1" parent="WIyWlLk6GJQsqaUBKTNV-1">
          <mxGeometry x="838" y="347.5" width="300" height="165" as="geometry" />
        </mxCell>
        <mxCell id="6ulNubki2C7oqee6jZ3r-40" value="&lt;font size=&quot;1&quot;&gt;&lt;b&gt;JUNCTION TABLE&lt;br&gt;&lt;/b&gt;&lt;/font&gt;" style="swimlane;fontStyle=0;childLayout=stackLayout;horizontal=1;startSize=26;fillColor=#FA9E34;horizontalStack=0;resizeParent=1;resizeParentMax=0;resizeLast=0;collapsible=1;marginBottom=0;whiteSpace=wrap;html=1;strokeColor=#CC6600;fontColor=#ffffff;strokeWidth=3;" vertex="1" parent="WIyWlLk6GJQsqaUBKTNV-1">
          <mxGeometry x="569" y="390" width="140" height="80" as="geometry" />
        </mxCell>
        <mxCell id="6ulNubki2C7oqee6jZ3r-41" value="&lt;div&gt;&amp;gt;&lt;/div&gt;&lt;div&gt;&lt;br&gt;&lt;/div&gt;&amp;gt;" style="text;strokeColor=none;fillColor=none;align=left;verticalAlign=top;spacingLeft=4;spacingRight=4;overflow=hidden;rotatable=0;points=[[0,0.5],[1,0.5]];portConstraint=eastwest;whiteSpace=wrap;html=1;" vertex="1" parent="6ulNubki2C7oqee6jZ3r-40">
          <mxGeometry y="26" width="140" height="54" as="geometry" />
        </mxCell>
        <mxCell id="6ulNubki2C7oqee6jZ3r-42" value="" style="fontSize=12;html=1;endArrow=ERoneToMany;startArrow=ERmandOne;rounded=0;" edge="1" parent="WIyWlLk6GJQsqaUBKTNV-1">
          <mxGeometry width="100" height="100" relative="1" as="geometry">
            <mxPoint x="569" y="440" as="sourcePoint" />
            <mxPoint x="509" y="440" as="targetPoint" />
          </mxGeometry>
        </mxCell>
        <mxCell id="6ulNubki2C7oqee6jZ3r-43" value="" style="fontSize=12;html=1;endArrow=ERoneToMany;startArrow=ERmandOne;rounded=0;" edge="1" parent="WIyWlLk6GJQsqaUBKTNV-1">
          <mxGeometry width="100" height="100" relative="1" as="geometry">
            <mxPoint x="709" y="440" as="sourcePoint" />
            <mxPoint x="769" y="440" as="targetPoint" />
          </mxGeometry>
        </mxCell>
        <mxCell id="6ulNubki2C7oqee6jZ3r-1" value="" style="shape=datastore;whiteSpace=wrap;html=1;fillColor=#F19C99;fontColor=#000000;strokeColor=#77C7C7;strokeWidth=4;" vertex="1" parent="WIyWlLk6GJQsqaUBKTNV-1">
          <mxGeometry x="584" y="110" width="110" height="120" as="geometry" />
        </mxCell>
        <mxCell id="6ulNubki2C7oqee6jZ3r-13" value="&lt;h1&gt;&lt;font color=&quot;#999999&quot; style=&quot;font-size: 24px;&quot;&gt;Creation of tables&lt;br&gt;&lt;/font&gt;&lt;/h1&gt;&lt;p style=&quot;font-size: 16px; line-height: 110%;&quot;&gt;&lt;font style=&quot;font-size: 16px;&quot;&gt;To set up the database at first initial launch of the server, we used &lt;b&gt;typeORM migration&lt;/b&gt; with NestJS.&lt;br&gt;&lt;/font&gt;&lt;/p&gt;" style="text;html=1;strokeColor=none;fillColor=none;spacing=5;spacingTop=-20;whiteSpace=wrap;overflow=hidden;rounded=0;" vertex="1" parent="WIyWlLk6GJQsqaUBKTNV-1">
          <mxGeometry x="839" y="110" width="299" height="120" as="geometry" />
        </mxCell>
        <mxCell id="6ulNubki2C7oqee6jZ3r-24" value="" style="group" vertex="1" connectable="0" parent="WIyWlLk6GJQsqaUBKTNV-1">
          <mxGeometry x="524.5" y="630" width="229" height="149" as="geometry" />
        </mxCell>
        <mxCell id="6ulNubki2C7oqee6jZ3r-17" value="" style="swimlane;fontStyle=0;childLayout=stackLayout;horizontal=1;startSize=26;fillColor=#999999;horizontalStack=0;resizeParent=1;resizeParentMax=0;resizeLast=0;collapsible=1;marginBottom=0;whiteSpace=wrap;html=1;strokeColor=#CCCCCC;fontColor=#ffffff;strokeWidth=3;" vertex="1" parent="6ulNubki2C7oqee6jZ3r-24">
          <mxGeometry width="145.72727272727272" height="112.45283018867924" as="geometry" />
        </mxCell>
        <mxCell id="6ulNubki2C7oqee6jZ3r-19" value="&lt;b&gt;SETTING TABLE&lt;/b&gt;" style="swimlane;fontStyle=0;childLayout=stackLayout;horizontal=1;startSize=26;fillColor=#999999;horizontalStack=0;resizeParent=1;resizeParentMax=0;resizeLast=0;collapsible=1;marginBottom=0;whiteSpace=wrap;html=1;strokeColor=#CCCCCC;fontColor=#ffffff;strokeWidth=3;" vertex="1" parent="6ulNubki2C7oqee6jZ3r-24">
          <mxGeometry x="83.27272727272727" y="37.48427672955975" width="145.72727272727272" height="74.9685534591195" as="geometry" />
        </mxCell>
        <mxCell id="6ulNubki2C7oqee6jZ3r-22" value="" style="swimlane;fontStyle=0;childLayout=stackLayout;horizontal=1;startSize=26;fillColor=#999999;horizontalStack=0;resizeParent=1;resizeParentMax=0;resizeLast=0;collapsible=1;marginBottom=0;whiteSpace=wrap;html=1;strokeColor=#CCCCCC;fontColor=#ffffff;strokeWidth=3;" vertex="1" parent="6ulNubki2C7oqee6jZ3r-24">
          <mxGeometry x="49.96363636363636" y="89.0251572327044" width="96.22626262626262" height="59.9748427672956" as="geometry" />
        </mxCell>
        <mxCell id="6ulNubki2C7oqee6jZ3r-23" value="&lt;h1&gt;&lt;font color=&quot;#999999&quot; style=&quot;font-size: 24px;&quot;&gt;Setting tables&lt;br&gt;&lt;/font&gt;&lt;/h1&gt;&lt;p style=&quot;font-size: 16px; line-height: 110%;&quot;&gt;&lt;font style=&quot;font-size: 16px;&quot;&gt;To store and use data like as &lt;b&gt;const&lt;/b&gt;.&lt;br&gt;Easy to use by people out from programming.&lt;br&gt;&lt;/font&gt;&lt;/p&gt;" style="text;html=1;strokeColor=none;fillColor=none;spacing=5;spacingTop=-20;whiteSpace=wrap;overflow=hidden;rounded=0;" vertex="1" parent="WIyWlLk6GJQsqaUBKTNV-1">
          <mxGeometry x="839" y="639.5" width="299" height="120" as="geometry" />
        </mxCell>
        <mxCell id="6ulNubki2C7oqee6jZ3r-44" value="" style="endArrow=none;dashed=1;html=1;dashPattern=1 3;strokeWidth=3;rounded=0;fontColor=#B3B3B3;strokeColor=#CCCCCC;" edge="1" parent="WIyWlLk6GJQsqaUBKTNV-1">
          <mxGeometry width="50" height="50" relative="1" as="geometry">
            <mxPoint x="440" y="780" as="sourcePoint" />
            <mxPoint x="440" y="120" as="targetPoint" />
          </mxGeometry>
        </mxCell>
      </root>
    </mxGraphModel>
  </diagram>
</mxfile>
